<svg width="65" height="33" viewBox="0 0 65 33" fill="none" xmlns="http://www.w3.org/2000/svg">
<g id="Group">
<path id="Vector" d="M31.4763 28.1017C29.8482 28.1017 28.5819 28.1017 27.8583 27.9208C26.9538 27.7399 26.2302 27.7399 25.1448 27.559C21.5269 27.1972 17.5471 26.8354 13.7482 26.1118C10.1302 25.3882 6.33135 23.9411 3.07517 22.313C1.44708 21.4085 0.361686 20.1422 0.180787 18.8759C-0.000111938 17.4287 1.08528 15.9815 2.71337 14.8961C3.61787 14.1725 4.88416 13.8107 5.96955 13.268C6.51225 12.9062 7.23584 12.7253 7.77854 12.3635L8.14034 13.268C7.59764 13.6298 6.87405 13.8107 6.33135 14.1725C5.24596 14.5343 4.16056 15.077 3.25607 15.8006C1.80888 16.7051 1.08528 17.7905 1.08528 18.695C1.08528 19.5995 1.98978 20.504 3.43697 21.2276C6.69315 22.8556 10.3111 24.1219 13.9291 24.8455C17.5471 25.5691 21.346 25.9309 25.1448 26.2927C26.0493 26.4736 26.9538 26.4736 27.8583 26.6545C28.5819 26.6545 29.6673 26.8354 31.6572 26.8354V27.9208C31.6572 28.1017 31.6572 28.1017 31.4763 28.1017Z" fill="#FF0000"/>
<path id="Vector_2" d="M38.1699 27.5589C35.2756 28.6443 31.2958 30.6342 29.125 32.6241L30.934 27.5589L29.125 22.4938C31.4767 24.6646 35.0947 26.4736 38.1699 27.5589Z" fill="#FF0000"/>
<path id="Vector_3" d="M43.4155 27.1971L43.0537 26.2926C44.5009 25.9308 46.3099 25.569 48.1189 25.3881C52.0987 24.6645 56.4402 23.7601 59.5155 22.6747C61.1436 22.132 63.1335 21.0466 62.9526 19.0567C62.9526 17.2477 61.3245 16.3432 59.6964 15.4387L59.3346 15.2578C58.611 14.896 58.0683 14.7151 57.3447 14.3533C56.802 13.9915 56.2593 13.9915 55.7166 13.6297L56.0784 12.7252C56.6211 13.087 57.1638 13.087 57.7065 13.4488C58.4301 13.8106 59.1537 13.9915 59.8773 14.3533L60.2391 14.5342C61.8672 15.4387 63.8571 16.5241 64.038 18.8758C64.038 21.2275 62.5908 22.8556 59.8773 23.7601C56.802 24.6646 52.2796 25.5691 48.2998 26.4735C46.4908 26.6544 44.6818 26.8353 43.4155 27.1971Z" fill="#FF0000"/>
<path id="Vector_4" d="M55.3546 0.966797C53.7265 0.966797 52.2793 2.41398 52.2793 4.04207C52.2793 5.67016 53.7265 7.11735 55.3546 7.11735C56.9827 7.11735 58.4299 5.67016 58.4299 4.04207C58.4299 2.23308 57.1636 0.966797 55.3546 0.966797ZM55.3546 5.48927C54.631 5.48927 53.9074 4.94657 53.9074 4.04207C53.9074 3.13758 54.4501 2.59488 55.3546 2.59488C56.2591 2.59488 56.8018 3.13758 56.8018 4.04207C56.8018 4.76567 56.2591 5.48927 55.3546 5.48927Z" fill="#FF0000"/>
<path id="Vector_5" d="M23.6979 14.5342C23.6979 17.6095 21.3462 19.9612 18.0901 19.9612C15.0148 19.9612 12.844 17.7904 12.6631 14.896H15.1957C15.3766 16.5241 16.462 17.6095 18.0901 17.6095C19.7181 17.6095 20.9844 16.3432 20.9844 14.7151C20.9844 13.0871 19.7181 11.8207 17.9092 11.8207H15.9193V11.459L19.3563 6.21287H13.3867V3.6803H23.1552V4.223L19.5372 9.83085C21.8889 10.0117 23.6979 12.0016 23.6979 14.5342Z" fill="#FF0000"/>
<path id="Vector_6" d="M37.6266 14.1724C37.6266 17.4286 35.2749 19.7803 31.8378 19.7803C28.2198 19.7803 25.8682 17.4286 25.8682 14.1724C25.8682 12.5443 26.4109 11.0971 27.4963 8.92633L30.7524 3.31848H33.6468C31.6569 6.75556 30.9333 8.02186 30.2097 9.28815C30.7524 8.92635 31.476 8.92633 32.1996 8.92633C35.094 8.92633 37.6266 11.0971 37.6266 14.1724ZM34.9131 14.1724C34.9131 12.3634 33.4659 11.0971 31.6569 11.0971C29.8479 11.0971 28.4007 12.3634 28.4007 14.1724C28.4007 15.9814 29.8479 17.2477 31.6569 17.2477C33.6468 17.2477 34.9131 15.9814 34.9131 14.1724Z" fill="#FF0000"/>
<path id="Vector_7" d="M39.4355 11.4588C39.4355 6.39364 41.7872 3.13745 45.767 3.13745C49.7468 3.13745 52.0985 6.21274 52.0985 11.4588C52.0985 16.524 49.7468 19.7801 45.767 19.7801C42.149 19.7801 39.4355 16.524 39.4355 11.4588ZM49.5659 11.4588C49.5659 7.84083 48.1187 5.67005 45.9479 5.67005C43.7771 5.67005 42.3299 7.84083 42.3299 11.4588C42.3299 15.0768 43.7771 17.2476 45.9479 17.2476C48.2996 17.2476 49.5659 15.2577 49.5659 11.4588Z" fill="#FF0000"/>
</g>
</svg>
